<?xml version="1.0" encoding="UTF-8" standalone="yes"?>
<svg version="1.2" width="2000" height="2000" baseProfile="tiny-ps" xmlns="http://www.w3.org/2000/svg">
  <title>bimi-svg-tiny-12-ps</title>
  <path d="M0 0 C0 57.75 0 115.5 0 175 C8.98480498 174.43877966 8.98480498 174.43877966 14 169 C15.16684712 167.75711346 16.34202761 166.52202116 17.5234375 165.29296875 C18.80817205 163.92530564 20.09200788 162.55679781 21.375 161.1875 C22.00921875 160.51396484 22.6434375 159.84042969 23.296875 159.14648438 C27.07024519 155.12283963 30.74833401 151.03263512 34.36572266 146.8684082 C36.69813907 144.2018437 39.0958423 141.60214715 41.5 139 C45.11813497 135.07210794 48.68340936 131.10707808 52.1796875 127.0703125 C55.2878582 123.53526857 58.48302436 120.07910263 61.66796875 116.61328125 C63.87413608 114.14104349 65.95639461 111.6073586 68 109 C59.3748114 106.77261613 50.71976109 104.81876674 42 103 C41.94583812 101.39620659 41.90713362 99.79188594 41.875 98.1875 C41.85179687 97.29417969 41.82859375 96.40085937 41.8046875 95.48046875 C42 93 42 93 44 90 C47.01187134 89.63923645 47.01187134 89.63923645 50.92822266 89.65942383 C51.64052536 89.65898575 52.35282806 89.65854767 53.0867157 89.65809631 C55.44610812 89.6601899 57.80479391 89.68354675 60.1640625 89.70703125 C61.79787813 89.7126252 63.43169878 89.71689625 65.06552124 89.71989441 C69.36960702 89.73135906 73.67338998 89.76083992 77.97735596 89.79400635 C82.36767479 89.82467249 86.75804247 89.83839233 91.1484375 89.85351562 C99.7657641 89.88570829 108.3828444 89.93692392 117 90 C117 93.96 117 97.92 117 102 C116.00871094 102.28359375 115.01742187 102.5671875 113.99609375 102.859375 C113.35526855 103.04306641 112.71444336 103.22675781 112.05419922 103.41601562 C110.72136013 103.7949259 109.38711119 104.1689245 108.05126953 104.53710938 C106.04988084 105.09135548 104.05636891 105.66933615 102.0625 106.25 C101.39798828 106.42917969 100.73347656 106.60835937 100.04882812 106.79296875 C90.83302095 109.52821317 84.70838936 116.00623105 78.375 122.9375 C77.6855127 123.68112793 76.99602539 124.42475586 76.28564453 125.19091797 C74.86885281 126.71946763 73.45461337 128.25038703 72.04296875 129.78369141 C69.57244989 132.46382647 67.08407206 135.12683926 64.59350586 137.78833008 C61.08344657 141.53974023 57.58321395 145.30033178 54.08154297 149.05957031 C52.7845528 150.45185614 51.48735551 151.84394906 50.18994141 153.23583984 C48.96907812 154.54560865 47.74867522 155.8558068 46.52880859 157.16650391 C45.97918457 157.75608887 45.42956055 158.34567383 44.86328125 158.953125 C44.14072144 159.72897949 44.14072144 159.72897949 43.40356445 160.52050781 C41.96137323 162.04071634 40.48810501 163.52482068 39 165 C40.63867323 170.25001678 43.92277818 174.22964636 47.1875 178.5625 C47.80753906 179.39458984 48.42757812 180.22667969 49.06640625 181.08398438 C51.0383711 183.72713004 53.01834578 186.36411311 55 189 C56.25666711 190.67566375 57.5131802 192.35144302 58.76953125 194.02734375 C60.64008096 196.52149164 62.51134346 199.01508886 64.38476562 201.50708008 C69.2761182 208.0172676 74.11311791 214.56605679 78.93481445 221.12792969 C83.14030716 226.84658862 87.37334856 232.54364731 91.66601562 238.19726562 C94.149036 241.47804355 96.5591025 244.78622274 98.875 248.1875 C105.49707355 258.12181653 105.49707355 258.12181653 116 263 C117.27359375 263.27714844 118.5471875 263.55429688 119.859375 263.83984375 C122.54799061 264.40299113 125.23117255 264.90613084 127.9375 265.38671875 C131 266 131 266 132 267 C132.25983398 271.50378902 132.13115848 274.97447843 130 279 C126.8825398 280.5587301 123.65659007 279.81110257 120.26171875 279.56640625 C106.45572113 278.70911415 92.63873112 278.89248002 78.8125 278.9375 C76.10481917 278.94310798 73.39713673 278.94715783 70.68945312 278.95117188 C64.12628188 278.96207028 57.56314533 278.97870629 51 279 C50.94552953 277.58376784 50.90699492 276.16691809 50.875 274.75 C50.85179687 273.96109375 50.82859375 273.1721875 50.8046875 272.359375 C51.02367182 269.71404443 51.47355139 268.17298033 53 266 C55.82517725 265.53411453 58.29079561 265.30384499 61.125 265.25 C61.87910156 265.22035156 62.63320313 265.19070313 63.41015625 265.16015625 C65.27285953 265.08942068 67.13643755 265.04245017 69 265 C63.59011303 256.18036032 57.66014162 247.77785187 51.66650391 239.35058594 C48.80111588 235.30898677 45.96358613 231.24794681 43.125 227.1875 C42.54685547 226.3610498 41.96871094 225.53459961 41.37304688 224.68310547 C39.58171438 222.12229176 37.79080964 219.56117937 36 217 C33.4795906 213.3955366 30.95867728 209.79142632 28.4375 206.1875 C27.86596191 205.36983154 27.29442383 204.55216309 26.70556641 203.7097168 C25.6294971 202.17154065 24.53918116 200.64320727 23.43310547 199.12646484 C22 197 22 197 21.08642578 194.90869141 C20.10343783 192.5795302 20.10343783 192.5795302 17 190 C8.585 189.505 8.585 189.505 0 189 C0.33 212.1 0.66 235.2 1 259 C8.92 261.31 16.84 263.62 25 266 C25 276 25 276 23 280 C22.07372803 279.9292627 21.14745605 279.85852539 20.19311523 279.78564453 C7.95865058 278.92368527 -4.24956571 278.84681134 -16.51049805 278.86962891 C-19.92826788 278.87498553 -23.34590603 278.86965356 -26.76367188 278.86328125 C-39.21084017 278.85990391 -51.58273418 279.11900126 -64 280 C-64.125 268.25 -64.125 268.25 -63 266 C-60.80688477 265.23803711 -60.80688477 265.23803711 -57.94140625 264.52734375 C-56.91595703 264.26759766 -55.89050781 264.00785156 -54.83398438 263.74023438 C-53.75439453 263.47533203 -52.67480469 263.21042969 -51.5625 262.9375 C-49.43834372 262.40677911 -47.31462246 261.87431312 -45.19140625 261.33984375 C-44.24467041 261.10644287 -43.29793457 260.87304199 -42.32250977 260.63256836 C-39.99925189 260.08147911 -39.99925189 260.08147911 -38 259 C-37.67 180.79 -37.34 102.58 -37 22 C-42.94 21.67 -48.88 21.34 -55 21 C-59.36742544 20.39142432 -63.67173586 19.78765231 -68 19 C-68.05416188 17.39620659 -68.09286638 15.79188594 -68.125 14.1875 C-68.14820313 13.29417969 -68.17140625 12.40085937 -68.1953125 11.48046875 C-68 9 -68 9 -66 6 C-63.35852637 5.27683597 -60.85724429 4.73602598 -58.16796875 4.28125 C-57.38037674 4.13723755 -56.59278473 3.9932251 -55.78132629 3.84484863 C-53.25203831 3.38459529 -50.72009726 2.94164528 -48.1875 2.5 C-44.88843334 1.9111447 -41.59067438 1.31517252 -38.29296875 0.71875 C-37.49197754 0.5757547 -36.69098633 0.4327594 -35.86572266 0.28543091 C-30.06572728 -0.76317309 -24.35904683 -2.02664269 -18.64526367 -3.47900391 C-11.44083384 -4.89794745 -6.71329202 -2.87712515 0 0 Z " fill="#000000" transform="translate(334,773)"/>
  <path d="M0 0 C0 57.75 0 115.5 0 175 C3.63 174.67 7.26 174.34 11 174 C11.66 172.68 12.32 171.36 13 170 C14.03217137 168.75835608 15.11341447 167.55649253 16.23046875 166.390625 C16.86919922 165.71773437 17.50792969 165.04484375 18.16601562 164.3515625 C18.83310547 163.65804687 19.50019531 162.96453125 20.1875 162.25 C24.68777911 157.53926008 29.10462687 152.78939893 33.37231445 147.86621094 C35.69974673 145.19771052 38.09708002 142.60080751 40.5 140 C44.09735943 136.09513223 47.63798988 132.15055407 51.11328125 128.13671875 C54.05254778 124.80798419 57.071345 121.55211128 60.09375 118.29882812 C62.86723504 115.29754964 65.48551056 112.22113753 68 109 C59.3748114 106.77261613 50.71976109 104.81876674 42 103 C41.94583812 101.39620659 41.90713362 99.79188594 41.875 98.1875 C41.85179687 97.29417969 41.82859375 96.40085937 41.8046875 95.48046875 C42 93 42 93 44 90 C47.01187134 89.63923645 47.01187134 89.63923645 50.92822266 89.65942383 C51.64052536 89.65898575 52.35282806 89.65854767 53.0867157 89.65809631 C55.44610812 89.6601899 57.80479391 89.68354675 60.1640625 89.70703125 C61.79787813 89.7126252 63.43169878 89.71689625 65.06552124 89.71989441 C69.36960702 89.73135906 73.67338998 89.76083992 77.97735596 89.79400635 C82.36767479 89.82467249 86.75804247 89.83839233 91.1484375 89.85351562 C99.7657641 89.88570829 108.3828444 89.93692392 117 90 C117.02696365 91.79158489 117.04637917 93.58328473 117.0625 95.375 C117.07410156 96.37273437 117.08570313 97.37046875 117.09765625 98.3984375 C117 101 117 101 116 103 C113.35324825 103.68332148 110.73783666 104.2683398 108.0625 104.8125 C92.9309596 108.20351056 84.65210437 115.33646058 74.640625 126.8515625 C71.00909964 131.02207697 67.24235356 135.05035795 63.4375 139.0625 C62.0374736 140.54399984 60.63774028 142.0257767 59.23828125 143.5078125 C58.18568115 144.6220459 58.18568115 144.6220459 57.11181641 145.75878906 C53.17110291 149.94095668 49.25639165 154.14738459 45.34155273 158.35375977 C43.25270943 160.59625371 41.16723552 162.83276448 39 165 C39.33089844 168.54554157 41.09824397 170.74328504 43.24609375 173.4921875 C43.91318359 174.35457031 44.58027344 175.21695313 45.26757812 176.10546875 C45.98365234 177.01941406 46.69972656 177.93335938 47.4375 178.875 C48.9169945 180.78780292 50.39486231 182.70186515 51.87109375 184.6171875 C52.58765137 185.5462793 53.30420898 186.47537109 54.04248047 187.43261719 C56.8345871 191.09460188 59.48514273 194.84171275 62.13061523 198.61083984 C65.95137421 204.01088796 69.97575399 209.25066064 74 214.5 C78.42520027 220.27235533 82.81273081 226.05256362 87 232 C87.77085937 233.07121094 88.54171875 234.14242187 89.3359375 235.24609375 C90.82989658 237.32750596 92.2858404 239.42501881 93.71582031 241.55126953 C103.9885826 257.16355887 103.9885826 257.16355887 120.37890625 264.546875 C121.57386719 264.69640625 122.76882813 264.8459375 124 265 C130.91349481 265.91349481 130.91349481 265.91349481 132 267 C132.41791445 272.32840928 131.5010895 275.34665717 129 280 C127.90719727 279.9285376 126.81439453 279.8570752 125.68847656 279.78344727 C110.04285251 278.84185748 94.41865043 278.8863142 78.75 278.9375 C76.04687646 278.94311016 73.34375132 278.94715864 70.640625 278.95117188 C64.09372969 278.96206133 57.54686927 278.97868996 51 279 C50.94583812 277.39620659 50.90713362 275.79188594 50.875 274.1875 C50.85179687 273.29417969 50.82859375 272.40085937 50.8046875 271.48046875 C51 269 51 269 53 266 C55.77262255 265.61605333 58.34323528 265.39657752 61.125 265.3125 C61.87910156 265.27833984 62.63320312 265.24417969 63.41015625 265.20898438 C65.27291201 265.12645722 67.13643326 265.06155289 69 265 C64.379726 257.37234764 59.28677483 250.1682434 54.04003906 242.96484375 C50.01749341 237.4335573 46.10043213 231.84213059 42.24414062 226.1940918 C36.79666718 218.22095366 31.33362918 210.24289933 25.64648438 202.43847656 C24 200 24 200 22.61914062 197.20996094 C21.01404691 193.94884257 21.01404691 193.94884257 17 190 C8.585 189.505 8.585 189.505 0 189 C0.33 212.1 0.66 235.2 1 259 C8.92 261.31 16.84 263.62 25 266 C25 276 25 276 23 280 C22.07372803 279.9292627 21.14745605 279.85852539 20.19311523 279.78564453 C7.95865058 278.92368527 -4.24956571 278.84681134 -16.51049805 278.86962891 C-19.92826788 278.87498553 -23.34590603 278.86965356 -26.76367188 278.86328125 C-39.21084017 278.85990391 -51.58273418 279.11900126 -64 280 C-64 275.71 -64 271.42 -64 267 C-57.75156457 264.80756652 -51.46318009 263.00713849 -45.05444336 261.35839844 C-41.43743454 260.43061425 -41.43743454 260.43061425 -38 259 C-37.67 180.79 -37.34 102.58 -37 22 C-42.94 21.67 -48.88 21.34 -55 21 C-59.36742544 20.39142432 -63.67173586 19.78765231 -68 19 C-69.10094178 14.36487555 -68.85600646 11.47128828 -67 7 C-63.39507045 5.1366249 -59.74818202 4.4911709 -55.765625 3.8515625 C-54.55938477 3.65256348 -53.35314453 3.45356445 -52.11035156 3.24853516 C-50.83643555 3.04276855 -49.56251953 2.83700195 -48.25 2.625 C-39.82914907 1.23611182 -31.51193622 -0.22820525 -23.25 -2.375 C-14.02666997 -4.70811717 -8.96087333 -3.84037428 0 0 Z " fill="#000000" transform="translate(1209,773)"/>
  <path d="M0 0 C0.68191406 0.07605469 1.36382813 0.15210938 2.06640625 0.23046875 C5.31411326 1.02768184 8.36376721 2.49518595 11.4375 3.8125 C11.7675 89.2825 12.0975 174.7525 12.4375 262.8125 C25.8025 266.2775 25.8025 266.2775 39.4375 269.8125 C40.56597307 275.45486535 40.1227074 277.49079241 38.4375 282.8125 C35.41715338 284.32267331 32.85260363 283.64714358 29.49609375 283.3828125 C18.36095326 282.61398301 7.22929596 282.66220471 -3.92749023 282.68212891 C-7.490115 282.68748514 -11.05261344 282.68215489 -14.61523438 282.67578125 C-25.58457389 282.6736849 -36.50878038 282.73702495 -47.45262146 283.55099487 C-49.15380421 283.67257656 -50.85819808 283.74800342 -52.5625 283.8125 C-54.13277317 282.24222683 -53.73224386 280.66980053 -53.75 278.5 C-53.76417969 277.72011719 -53.77835938 276.94023438 -53.79296875 276.13671875 C-53.52845099 273.46912436 -53.04099068 272.05045685 -51.5625 269.8125 C-49.34765625 268.82348633 -49.34765625 268.82348633 -46.625 268.14453125 C-45.64789062 267.89123047 -44.67078125 267.63792969 -43.6640625 267.37695312 C-42.64054687 267.12880859 -41.61703125 266.88066406 -40.5625 266.625 C-38.54131352 266.11206665 -36.52046252 265.59780895 -34.5 265.08203125 C-33.60152344 264.86135986 -32.70304687 264.64068848 -31.77734375 264.41333008 C-29.54492373 263.88597962 -29.54492373 263.88597962 -27.5625 262.8125 C-27.2325 184.6025 -26.9025 106.3925 -26.5625 25.8125 C-32.1725 25.4825 -37.7825 25.1525 -43.5625 24.8125 C-54.02403846 23.99198718 -54.02403846 23.99198718 -57.5625 22.8125 C-57.87841371 13.49304569 -57.87841371 13.49304569 -55.5625 9.8125 C-52.55742899 8.58013383 -49.43860066 8.14919531 -46.2421875 7.64453125 C-45.30956085 7.47878098 -44.3769342 7.3130307 -43.41604614 7.14225769 C-40.426427 6.61536341 -37.43263742 6.11946209 -34.4375 5.625 C-31.46525258 5.11315045 -28.49415029 4.59506376 -25.52322388 4.0756073 C-23.67436595 3.75468579 -21.8245245 3.43936264 -19.97360229 3.13056946 C-15.96722467 2.45546815 -12.0232823 1.71735815 -8.08666992 0.70703125 C-5.04149083 -0.06591895 -3.06129653 -0.40081492 0 0 Z " fill="#000000" transform="translate(1400.5625,769.1875)"/>
  <path d="M0 0 C6.85733518 4.11440111 10.92887775 10.50538326 13.4296875 18.0078125 C13.91350511 23.06013735 14.10016409 27.52110354 11.9921875 32.1953125 C4.76155472 40.13137287 -1.30386099 45.25611062 -12.1953125 46.3828125 C-19.27655647 45.59600761 -24.91210958 42.2982001 -29.5703125 37.0078125 C-33.26571952 31.3218383 -35.5703125 25.81400596 -35.5703125 19.0078125 C-32.71875307 10.15297005 -27.4131236 5.51775953 -19.5703125 1.0078125 C-13.39420526 -1.90619623 -6.44226281 -2.48683093 0 0 Z " fill="#000000" transform="translate(695.5703125,780.9921875)"/>
  <path d="M0 0 C6.37116881 4.70221399 10.74718895 11.31804569 12.625 19 C13.37070317 24.9656254 11.99393669 29.15178515 8.625 34 C2.58496438 40.99222947 -5.00140583 44.27137706 -14.0625 45.5 C-20.87475127 44.47173566 -25.94763234 41.26497776 -30.375 36 C-34.94951954 29.39092078 -37.30421131 24.15792875 -36.375 16 C-33.28536607 8.34308113 -27.02734111 3.20518709 -20.0625 -1 C-13.34536586 -2.8215957 -6.25245046 -3.55225592 0 0 Z " fill="#000000" transform="translate(1694.375,782)"/>
  <path d="M0 0 C0.59425781 0.47695313 1.18851563 0.95390625 1.80078125 1.4453125 C15.97175302 13.8897061 21.66134855 35.94629524 23 54 C23.21995832 57.70846929 23.3548193 61.41102118 23.4375 65.125 C23.47206299 66.03862305 23.50662598 66.95224609 23.54223633 67.89355469 C23.55033325 69.1876123 23.55033325 69.1876123 23.55859375 70.5078125 C23.57877563 71.66240967 23.57877563 71.66240967 23.59936523 72.84033203 C22.67685339 76.1643808 20.84946181 77.14553381 18 79 C14.67306519 79.48774719 14.67306519 79.48774719 10.82763672 79.4699707 C9.76970413 79.4732563 9.76970413 79.4732563 8.69039917 79.47660828 C6.35301945 79.47892107 4.01690068 79.45258022 1.6796875 79.42578125 C0.02190548 79.42084192 -1.63588218 79.41755312 -3.29367065 79.41581726 C-7.68302944 79.40620682 -12.07187624 79.37181298 -16.46105957 79.33294678 C-19.93346865 79.30629469 -23.40580513 79.29724146 -26.87829971 79.28926277 C-49.5978289 79.2355497 -72.29390554 78.7689401 -95 78 C-94.14781605 104.77614118 -92.45138723 133.17623802 -71.75 152.8046875 C-58.07458549 163.72170874 -41.17353024 165.00539881 -24.3203125 163.421875 C-11.70761165 161.81932007 0.15718145 156.88211391 10.375 149.21875 C12 148 12 148 14 148 C16.91668753 149.45834376 18.27985705 151.26051309 20 154 C20 157.83362727 17.38362172 160.18833354 15 163 C4.53776235 172.66619783 -7.44674888 178.86948537 -21 183 C-21.7940625 183.2475 -22.588125 183.495 -23.40625 183.75 C-45.10960912 189.25226006 -72.46408827 183.6859294 -91.5234375 172.58203125 C-113.64682884 158.44958094 -126.70121133 137.51985187 -132.65625 112.2109375 C-138.18428585 83.3513386 -135.38877113 49.96532538 -118.72460938 25.09667969 C-102.78928459 2.57024327 -80.90797201 -8.86905423 -54.1875 -13.6875 C-34.70739976 -15.61095528 -15.15348401 -13.24863705 0 0 Z M-76 19 C-85.68372533 31.40954301 -93.16936417 47.06324439 -93 63 C-72.59567266 62.08218892 -52.1909193 61.16037166 -31.79528809 60.06365967 C-30.22530071 59.97965335 -28.65523106 59.89717079 -27.08508301 59.81622314 C-24.90932038 59.70352754 -22.7339512 59.58507524 -20.55859375 59.46484375 C-19.33454834 59.399021 -18.11050293 59.33319824 -16.84936523 59.26538086 C-14.05552454 59.17873782 -14.05552454 59.17873782 -12 58 C-11.85992264 31.00966478 -11.85992264 31.00966478 -23.6875 8.0625 C-40.89693763 -5.4251184 -62.91771495 4.74708662 -76 19 Z " fill="#000000" transform="translate(596,872)"/>
  <path d="M0 0 C16.21542472 15.61149829 22.18820835 38.45195736 22.65307617 60.25756836 C22.66443604 61.4719458 22.6757959 62.68632324 22.6875 63.9375 C22.70594971 65.12545166 22.72439941 66.31340332 22.7434082 67.53735352 C22.735271 68.64908936 22.72713379 69.7608252 22.71875 70.90625 C22.71423828 71.90076172 22.70972656 72.89527344 22.70507812 73.91992188 C22.1875 76.4375 22.1875 76.4375 20.59533691 78.0725708 C17.32185745 79.92820632 14.90034401 79.80474199 11.14453125 79.79394531 C10.44099518 79.79598969 9.73745911 79.79803406 9.01260376 79.80014038 C6.6748076 79.8031564 4.33771338 79.78459071 2 79.765625 C0.3431821 79.76255788 -1.31363841 79.76068902 -2.97045898 79.75994873 C-6.4677095 79.75533449 -9.96473127 79.7409071 -13.46191406 79.71875 C-17.82696966 79.69116201 -22.19184237 79.6796873 -26.55697632 79.67494965 C-49.6553057 79.64721006 -72.72718564 79.20145381 -95.8125 78.4375 C-93.49536174 119.56711176 -93.49536174 119.56711176 -71.8125 153.4375 C-68.61298463 155.73793648 -65.31537004 157.63966935 -61.8125 159.4375 C-60.719375 160.015 -59.62625 160.5925 -58.5 161.1875 C-41.11283783 167.08145328 -20.02824529 165.47482979 -3.58300781 157.56274414 C0.94813157 155.31831427 5.3560288 153.06975818 9.4921875 150.1484375 C12.1875 148.4375 12.1875 148.4375 14.9375 149 C17.1875 150.4375 17.1875 150.4375 19.1875 153.4375 C19.57860937 156.39673714 19.57658031 157.85916915 17.89453125 160.359375 C0.57043214 177.07623764 -20.04730198 185.97001638 -44.20019531 185.79370117 C-67.02604696 185.19724458 -88.71874587 177.80619637 -105.8125 162.4375 C-106.42222656 161.90898438 -107.03195312 161.38046875 -107.66015625 160.8359375 C-125.25591351 144.56286814 -133.54959943 119.50077045 -135.01928711 96.15234375 C-135.88078561 66.29302964 -131.46772824 39.20238747 -111.3125 16.0625 C-109.8315463 14.50252812 -108.33214475 12.95980613 -106.8125 11.4375 C-106.12800781 10.74140625 -105.44351562 10.0453125 -104.73828125 9.328125 C-78.47377553 -15.72267898 -29.42523995 -23.76457854 0 0 Z M-78.8125 22.4375 C-86.98500065 34.18654956 -93.8125 48.93546487 -93.8125 63.4375 C-77.18772367 62.82438183 -60.57569973 62.05533865 -43.96508789 61.13525391 C-40.29792253 60.93325432 -36.6304272 60.73809942 -32.96289062 60.54296875 C-30.62237312 60.41447562 -28.28187737 60.28558541 -25.94140625 60.15625 C-24.8489711 60.098927 -23.75653595 60.041604 -22.6309967 59.98254395 C-21.13058083 59.8974054 -21.13058083 59.8974054 -19.59985352 59.81054688 C-18.28066673 59.73846008 -18.28066673 59.73846008 -16.93482971 59.66491699 C-14.7601327 59.55688791 -14.7601327 59.55688791 -12.8125 58.4375 C-12.39844371 42.22029534 -12.17888551 22.13533739 -23.10546875 9.0234375 C-27.15690881 5.25939937 -32.31344495 2.97399318 -37.8125 2.4375 C-38.42222656 2.37433594 -39.03195312 2.31117188 -39.66015625 2.24609375 C-55.7088748 1.34317129 -68.95341225 10.62564608 -78.8125 22.4375 Z " fill="#000000" transform="translate(1593.8125,871.5625)"/>
  <path d="M0 0 C11.59077372 9.1315768 16.2578827 20.94442942 18.23038101 35.27182007 C19.22924665 45.13479463 18.87125728 55.13653366 18.80808806 65.0380249 C18.78909535 68.52663372 18.78755331 72.0152537 18.78401184 75.50390625 C18.77475673 82.08373334 18.75023341 88.66340755 18.71996337 95.24316788 C18.68621346 102.74518826 18.66988207 110.24721666 18.65487707 117.74929428 C18.62367644 133.15716956 18.57104595 148.56489305 18.50390625 163.97265625 C19.58929687 164.24110352 20.6746875 164.50955078 21.79296875 164.78613281 C23.23829708 165.14511858 24.68360869 165.50417163 26.12890625 165.86328125 C26.84175781 166.03939941 27.55460937 166.21551758 28.2890625 166.39697266 C33.74741265 167.75530062 39.14167043 169.27117758 44.50390625 170.97265625 C44.58504731 172.74273339 44.6431613 174.51387723 44.69140625 176.28515625 C44.72621094 177.27128906 44.76101563 178.25742188 44.796875 179.2734375 C44.50390625 181.97265625 44.50390625 181.97265625 43.39819336 183.66040039 C40.50916003 185.66176064 38.36052502 185.02615219 34.90234375 184.66796875 C24.43766794 183.75810964 13.99351841 183.82240367 3.49609375 183.84228516 C0.14188088 183.84763555 -3.21219747 183.84231432 -6.56640625 183.8359375 C-17.17339193 183.83378658 -27.73049899 183.92975824 -38.31283569 184.71115112 C-40.03848184 184.83310628 -41.76734144 184.90828925 -43.49609375 184.97265625 C-45.06636692 183.40238308 -44.66583761 181.82995678 -44.68359375 179.66015625 C-44.69777344 178.88027344 -44.71195313 178.10039063 -44.7265625 177.296875 C-44.44838361 174.49151164 -44.28112438 173.19351254 -42.49609375 170.97265625 C-39.70906297 169.90841032 -37.11785468 169.08128257 -34.24609375 168.34765625 C-32.74065173 167.93966339 -31.23543889 167.53082384 -29.73046875 167.12109375 C-29.06241211 166.94755371 -28.39435547 166.77401367 -27.70605469 166.59521484 C-24.93647531 165.81500854 -22.22342793 164.88856334 -19.49609375 163.97265625 C-19.42566129 149.51565403 -19.37313952 135.05867886 -19.34065723 120.60153961 C-19.32526215 113.88712867 -19.30393229 107.17284083 -19.26977539 100.45849609 C-19.23696756 93.96807224 -19.21919582 87.47775934 -19.21146202 80.98725891 C-19.20595676 78.52198035 -19.19520734 76.05670724 -19.17890358 73.59147644 C-18.06986732 47.94133434 -18.06986732 47.94133434 -28.02734375 25.2734375 C-34.99898195 18.72960437 -42.50609048 17.45088303 -51.74609375 17.59765625 C-53.14033569 17.61397095 -53.14033569 17.61397095 -54.56274414 17.63061523 C-71.27794742 18.01730479 -86.30080057 24.38208835 -98.49609375 35.97265625 C-100.69051464 39.26428758 -100.7515557 40.25525097 -100.77456665 44.0789032 C-100.78573013 45.13479645 -100.79689362 46.1906897 -100.80839539 47.27857971 C-100.81055557 48.4366362 -100.81271576 49.59469269 -100.81494141 50.7878418 C-100.82498703 52.0074762 -100.83503265 53.2271106 -100.84538269 54.48370361 C-100.87099946 57.82849778 -100.88783942 61.17312183 -100.90081072 64.51797462 C-100.91643021 68.01340056 -100.94322417 71.50874022 -100.96884155 75.00410461 C-101.01565034 81.62321658 -101.05238424 88.24234474 -101.08551443 94.86153775 C-101.12372102 102.39718829 -101.17313498 109.93275222 -101.22349858 117.46832979 C-101.32684964 132.96970937 -101.41609967 148.47113748 -101.49609375 163.97265625 C-100.67643127 164.17566849 -99.8567688 164.37868073 -99.01226807 164.58784485 C-97.39599518 164.98969246 -97.39599518 164.98969246 -95.74707031 165.3996582 C-94.67990784 165.66454544 -93.61274536 165.92943268 -92.51324463 166.2023468 C-89.04951725 167.08667179 -85.65522904 168.08553752 -82.24609375 169.16015625 C-80.59867188 169.67642578 -80.59867188 169.67642578 -78.91796875 170.203125 C-78.11875 170.45707031 -77.31953125 170.71101563 -76.49609375 170.97265625 C-76.41495269 172.74273339 -76.3568387 174.51387723 -76.30859375 176.28515625 C-76.27378906 177.27128906 -76.23898437 178.25742188 -76.203125 179.2734375 C-76.49609375 181.97265625 -76.49609375 181.97265625 -77.56860352 183.6605072 C-80.58459416 185.71365859 -83.05589974 185.01514633 -86.62890625 184.66625977 C-88.08332065 184.54259683 -89.53809469 184.42310534 -90.99316406 184.30740356 C-92.11470886 184.21657942 -92.11470886 184.21657942 -93.25891113 184.12392044 C-96.75255856 183.88770202 -100.23771865 183.8589218 -103.73828125 183.85913086 C-104.43256226 183.85858987 -105.12684326 183.85804888 -105.84216309 183.85749149 C-108.01850022 183.8593921 -110.19477096 183.86708363 -112.37109375 183.875 C-113.91764276 183.87687208 -115.46419237 183.87829223 -117.01074219 183.87928772 C-121.02186814 183.88305086 -125.03295612 183.89282569 -129.04406738 183.9039917 C-133.16088345 183.91434164 -137.27770584 183.91881401 -141.39453125 183.92382812 C-149.42840257 183.93445556 -157.4622434 183.95145432 -165.49609375 183.97265625 C-165.5230574 182.18107136 -165.54247292 180.38937152 -165.55859375 178.59765625 C-165.57019531 177.59992188 -165.58179688 176.6021875 -165.59375 175.57421875 C-165.49609375 172.97265625 -165.49609375 172.97265625 -164.49609375 170.97265625 C-156.24609375 168.66265625 -147.99609375 166.35265625 -139.49609375 163.97265625 C-139.16609375 116.12265625 -138.83609375 68.27265625 -138.49609375 18.97265625 C-153.84109375 17.48765625 -153.84109375 17.48765625 -169.49609375 15.97265625 C-169.49609375 5.97265625 -169.49609375 5.97265625 -168.0065918 3.46337891 C-164.59539778 1.43782696 -161.18673057 0.76143101 -157.328125 0.12109375 C-156.13675179 -0.09636002 -156.13675179 -0.09636002 -154.92131042 -0.31820679 C-152.38613893 -0.77777974 -149.84778882 -1.21560702 -147.30859375 -1.65234375 C-144.78829771 -2.10104106 -142.26882501 -2.55414795 -139.74943542 -3.00790405 C-138.18513447 -3.28797054 -136.62015747 -3.56429844 -135.05439758 -3.83609009 C-130.4726902 -4.63680146 -125.94010886 -5.56784402 -121.40840149 -6.6162262 C-119.21018834 -7.08880914 -117.11979045 -7.32682041 -114.87109375 -7.33984375 C-114.19820312 -7.35660156 -113.5253125 -7.37335937 -112.83203125 -7.390625 C-109.42342105 -6.86052341 -106.62851148 -5.46461532 -103.49609375 -4.02734375 C-103.46898925 -0.98561656 -103.44920411 2.05586622 -103.43359375 5.09765625 C-103.42521484 5.95359375 -103.41683594 6.80953125 -103.40820312 7.69140625 C-103.39071069 12.23944036 -103.56417017 16.49648789 -104.49609375 20.97265625 C-103.85285156 20.42738281 -103.20960938 19.88210938 -102.546875 19.3203125 C-75.43913092 -3.30169932 -33.04494762 -22.65526976 0 0 Z " fill="#000000" transform="translate(1090.49609375,868.02734375)"/>
  <path d="M0 0 C0.76054688 0.26683594 1.52109375 0.53367187 2.3046875 0.80859375 C4.125 1.5625 4.125 1.5625 5.125 2.5625 C5.23422433 4.71378154 5.27192388 6.86869744 5.28321838 9.02272034 C5.29062535 10.04693184 5.29062535 10.04693184 5.29818195 11.09183449 C5.31362968 13.39658825 5.32193711 15.70131401 5.33032227 18.00610352 C5.33989509 19.65155283 5.34990481 21.29699966 5.36032104 22.94244385 C5.38744081 27.4236308 5.40841195 31.90482837 5.42832303 36.38605237 C5.45013912 41.06394224 5.47754915 45.74179916 5.50437927 50.41966248 C5.55436554 59.28422779 5.59928227 68.14881133 5.64240164 77.01341242 C5.69172341 87.10274543 5.74666025 97.19204538 5.80208123 107.28134644 C5.91599233 128.04170037 6.0226122 148.80208632 6.125 169.5625 C14.045 171.8725 21.965 174.1825 30.125 176.5625 C30.125 186.5625 30.125 186.5625 28.125 190.5625 C27.19872803 190.4917627 26.27245605 190.42102539 25.31811523 190.34814453 C13.08365058 189.48618527 0.87543429 189.40931134 -11.38549805 189.43212891 C-14.80326788 189.43748553 -18.22090603 189.43215356 -21.63867188 189.42578125 C-34.08584017 189.42240391 -46.45773418 189.68150126 -58.875 190.5625 C-58.875 186.2725 -58.875 181.9825 -58.875 177.5625 C-52.62656457 175.37006652 -46.33818009 173.56963849 -39.92944336 171.92089844 C-36.31243454 170.99311425 -36.31243454 170.99311425 -32.875 169.5625 C-32.545 121.7125 -32.215 73.8625 -31.875 24.5625 C-39.795 23.9025 -47.715 23.2425 -55.875 22.5625 C-58.185 22.2325 -60.495 21.9025 -62.875 21.5625 C-62.90208567 19.95842672 -62.92143483 18.3542215 -62.9375 16.75 C-62.94910156 15.85667969 -62.96070313 14.96335937 -62.97265625 14.04296875 C-62.875 11.5625 -62.875 11.5625 -61.875 8.5625 C-60.69550781 8.34335937 -59.51601563 8.12421875 -58.30078125 7.8984375 C-56.59623303 7.57877026 -54.89181793 7.2583928 -53.1875 6.9375 C-51.81247314 6.67888184 -51.81247314 6.67888184 -50.40966797 6.41503906 C-44.68246712 5.32495333 -38.97248403 4.17176465 -33.26953125 2.9609375 C-31.98199951 2.68846191 -30.69446777 2.41598633 -29.36791992 2.13525391 C-26.82382172 1.59409308 -24.28096526 1.04705544 -21.73950195 0.49365234 C-7.18342013 -2.59746507 -7.18342013 -2.59746507 0 0 Z " fill="#000000" transform="translate(702.875,862.4375)"/>
  <path d="M0 0 C0 55.44 0 110.88 0 168 C3.96 168.99 7.92 169.98 12 171 C14.423831 171.70498587 16.84250042 172.42861426 19.25 173.1875 C20.89742187 173.70376953 20.89742187 173.70376953 22.578125 174.23046875 C23.37734375 174.48441406 24.1765625 174.73835938 25 175 C26.34927078 181.01038803 25.49767278 183.65151303 23 189 C22.06792725 188.9292627 21.13585449 188.85852539 20.17553711 188.78564453 C8.08840865 187.9375763 -3.97001249 187.84660162 -16.08325195 187.86962891 C-19.42859438 187.87498574 -22.77380226 187.86965286 -26.11914062 187.86328125 C-36.70885835 187.8611296 -47.2484726 187.95862995 -57.81358337 188.73849487 C-59.54028244 188.86046721 -61.27019522 188.93563893 -63 189 C-64 188 -64 188 -64.1328125 185.8203125 C-64.13023438 184.93085937 -64.12765625 184.04140625 -64.125 183.125 C-64.12886719 181.79855469 -64.12886719 181.79855469 -64.1328125 180.4453125 C-64 178 -64 178 -63 175 C-61.12988281 174.23217773 -61.12988281 174.23217773 -58.703125 173.68359375 C-57.8265625 173.47669922 -56.95 173.26980469 -56.046875 173.05664062 C-55.12390625 172.85232422 -54.2009375 172.64800781 -53.25 172.4375 C-51.44197109 172.022732 -49.63465258 171.60485274 -47.828125 171.18359375 C-47.0227832 171.00368896 -46.21744141 170.82378418 -45.38769531 170.63842773 C-42.5153988 169.92114795 -42.5153988 169.92114795 -38 168 C-37.67 120.15 -37.34 72.3 -37 23 C-52.345 21.515 -52.345 21.515 -68 20 C-68 9.72 -68 9.72 -66 7 C-64.18147278 6.41444397 -64.18147278 6.41444397 -61.94067383 5.97290039 C-61.12966217 5.80879669 -60.31865051 5.64469299 -59.48306274 5.47561646 C-58.25394669 5.24018631 -58.25394669 5.24018631 -57 5 C-56.28443939 4.85634003 -55.56887878 4.71268005 -54.83163452 4.56466675 C-52.68517342 4.13587491 -50.53643662 3.72072938 -48.38671875 3.30859375 C-47.60988235 3.158423 -46.83304596 3.00825226 -46.03266907 2.85353088 C-43.58450614 2.38033634 -41.13604064 1.90873588 -38.6875 1.4375 C-36.22111905 0.96263072 -33.75481657 0.48737369 -31.28877258 0.01075745 C-29.76308324 -0.28411131 -28.23720252 -0.57799209 -26.71110535 -0.8707428 C-24.03587499 -1.38773929 -21.37345423 -1.90413213 -18.73364258 -2.58178711 C-11.75937564 -4.26421483 -6.80289218 -2.26763073 0 0 Z " fill="#000000" transform="translate(1705,864)"/>
  <path d="M0 0 C18.05417159 -0.1401092 36.10820225 -0.24594086 54.16279984 -0.31087303 C62.54572971 -0.34182247 70.92832197 -0.38402324 79.31103516 -0.45263672 C86.61671411 -0.51240608 93.9221486 -0.55114125 101.22806525 -0.56453097 C105.09730015 -0.57235915 108.96583561 -0.59077798 112.8348465 -0.63438034 C116.47608123 -0.67508359 120.11632801 -0.68767441 123.75776863 -0.67864609 C125.73237324 -0.68108592 127.70687002 -0.71338698 129.68119812 -0.746521 C138.12579532 -0.68724695 138.12579532 -0.68724695 140.66042328 1.30532455 C141.75653076 2.90707397 141.75653076 2.90707397 143 6 C143.36609375 6.71542969 143.7321875 7.43085937 144.109375 8.16796875 C144.88763773 10.62139456 145.19246693 12.42012409 145 15 C143.19224228 18.48283597 140.78363123 21.36183345 138.29003906 24.37792969 C135.91831632 27.36008826 133.82237702 30.53384264 131.6875 33.6875 C130.73749232 35.0758721 129.78696631 36.46388967 128.8359375 37.8515625 C128.3625293 38.54411133 127.88912109 39.23666016 127.40136719 39.95019531 C125.20900832 43.15699759 123.01182082 46.36046926 120.8125 49.5625 C120.37188232 50.20405029 119.93126465 50.84560059 119.47729492 51.5065918 C114.64811835 58.52769908 109.77384323 65.51738522 104.90356445 72.51000977 C101.08506675 77.99494205 97.27887301 83.487699 93.5 89 C89.02976302 95.5208044 84.518449 102.01252385 80 108.5 C73.18156108 118.29088579 66.40234655 128.10760183 59.66308594 137.953125 C52.53265999 148.36939066 45.28076391 158.68558446 38 169 C64.07 169.33 90.14 169.66 117 170 C117.66 166.37 118.32 162.74 119 159 C120.05933405 154.16549713 121.21941805 149.35820987 122.40405273 144.55322266 C122.76372229 143.0845857 123.11743931 141.61447981 123.46557617 140.14306641 C123.9736738 137.99576876 124.49840964 135.85318465 125.02734375 133.7109375 C125.33406006 132.44556152 125.64077637 131.18018555 125.95678711 129.87646484 C126.30104736 128.92723145 126.64530762 127.97799805 127 127 C130.56045177 125.81318274 133.43808337 125.90310168 137.1875 125.9375 C138.45980469 125.94652344 139.73210937 125.95554687 141.04296875 125.96484375 C142.01878906 125.97644531 142.99460937 125.98804688 144 126 C145.48801683 132.60602538 146.3747182 138.98649477 146.625 145.75 C146.66222168 146.64033936 146.69944336 147.53067871 146.73779297 148.44799805 C146.99479746 155.23492995 147.10081865 162.02099499 147.125 168.8125 C147.12967285 169.71258789 147.1343457 170.61267578 147.13916016 171.54003906 C147.13706543 172.39952148 147.1349707 173.25900391 147.1328125 174.14453125 C147.13168457 174.89065674 147.13055664 175.63678223 147.12939453 176.40551758 C146.9524904 179.95261239 146.44050979 183.47592171 146 187 C97.49 187 48.98 187 -1 187 C-4.52574698 176.42275906 -4.52574698 176.42275906 -3 171 C-1.3125 167.94921875 -1.3125 167.94921875 1 164.6875 C1.91474166 163.36986281 2.82733177 162.05073051 3.73828125 160.73046875 C4.50906006 159.62131104 4.50906006 159.62131104 5.29541016 158.48974609 C8.67767089 153.54957207 11.92065406 148.51688943 15.1875 143.5 C15.92688696 142.36730343 16.66647159 141.23473587 17.40625 140.10229492 C22.72218681 131.96443523 28.03065186 123.82169358 33.33911133 115.67895508 C41.60141731 103.00675331 49.8852251 90.34860311 58.16601562 77.68847656 C65.7815347 66.04505648 73.39561359 54.40069496 81 42.75 C81.57443848 41.87061768 82.14887695 40.99123535 82.74072266 40.08520508 C87.52915153 32.74547374 92.26064578 25.37232879 97 18 C63.34 17.505 63.34 17.505 29 17 C28.67 20.3 28.34 23.6 28 27 C27.63144214 29.44458381 27.23635046 31.88538969 26.80859375 34.3203125 C26.58623047 35.59648438 26.36386719 36.87265625 26.13476562 38.1875 C25.90466797 39.486875 25.67457031 40.78625 25.4375 42.125 C25.20084072 43.47650455 24.96451031 44.82806674 24.72851562 46.1796875 C24.1555627 49.45370422 23.57931595 52.72710426 23 56 C17.06039672 57.86484454 12.13855406 58.16817956 6 58 C4.28941762 50.9281118 3.26554863 43.91211473 2.4375 36.6875 C2.31181641 35.63626953 2.18613281 34.58503906 2.05664062 33.50195312 C0.96701618 24.22017836 -0.06824923 14.98298131 -0.02563477 5.62768555 C-0.02193375 4.56768845 -0.01823273 3.50769135 -0.01441956 2.41557312 C-0.0096611 1.61843399 -0.00490265 0.82129486 0 0 Z " fill="#000000" transform="translate(754,864)"/>
  <path d="M0 0 C2.31 0 4.62 0 7 0 C7.33 10.23 7.66 20.46 8 31 C12.5567867 26.4432133 16.83939111 22.12291864 21.00390625 17.28515625 C23.54256857 14.37885985 26.14190288 11.53145163 28.75 8.6875 C29.22219971 8.17155273 29.69439941 7.65560547 30.1809082 7.12402344 C31.44825098 5.74410347 32.72378961 4.37172295 34 3 C34.50660156 2.3915625 35.01320313 1.783125 35.53515625 1.15625 C37.60768649 -0.4796672 39.08938523 -0.30046151 41.6875 -0.1875 C42.89986328 -0.14689453 42.89986328 -0.14689453 44.13671875 -0.10546875 C44.75160156 -0.07066406 45.36648438 -0.03585937 46 0 C44.5158627 3.48654476 42.53785948 5.64191072 39.8125 8.25 C35.64131434 12.3277511 31.78873121 16.56969874 28 21 C26.68914172 22.50143492 25.37667724 24.00146924 24.0625 25.5 C23.47597656 26.1703125 22.88945313 26.840625 22.28515625 27.53125 C21.86105469 28.0159375 21.43695312 28.500625 21 29 C22.99576708 32.44400594 25.1462472 35.61893966 27.58203125 38.765625 C28.26716797 39.65636719 28.95230469 40.54710937 29.65820312 41.46484375 C31.08245264 43.30616724 32.50692794 45.14731611 33.93164062 46.98828125 C38.18693959 52.52136409 42.21981899 58.13112712 46 64 C42.52079032 64.5696129 39.46562141 64.72189929 36 64 C32.88060853 61.47463619 30.90064483 58.36038255 28.75 55 C27.59904024 53.31244413 26.44799933 51.62494361 25.296875 49.9375 C24.75224609 49.11121094 24.20761719 48.28492188 23.64648438 47.43359375 C21.58313522 44.3838511 19.35429017 41.48445381 17.07519531 38.59375 C16 37 16 37 16 35 C15.236875 35.763125 14.47375 36.52625 13.6875 37.3125 C12.29116691 38.70883309 10.88138296 40.09879148 9.36401367 41.36254883 C7.52601607 43.56900129 7.57455972 45.03952935 7.48828125 47.88671875 C7.45283203 48.82451172 7.41738281 49.76230469 7.38085938 50.72851562 C7.34702148 52.19321289 7.34702148 52.19321289 7.3125 53.6875 C7.27833984 54.67556641 7.24417969 55.66363281 7.20898438 56.68164062 C7.12649462 59.12098053 7.05734932 61.55996063 7 64 C4.36 64 1.72 64 -1 64 C-1.0231271 55.80309439 -1.04091696 47.60620232 -1.05181217 39.40927219 C-1.0570402 35.60348423 -1.06413638 31.79771852 -1.07543945 27.99194336 C-1.0862712 24.32207456 -1.09227744 20.65222722 -1.09487724 16.98234367 C-1.09673097 15.57925008 -1.1003506 14.17615771 -1.10573006 12.7730732 C-1.11294419 10.8143032 -1.11340809 8.8555118 -1.11352539 6.89672852 C-1.115746 5.77976089 -1.11796661 4.66279327 -1.12025452 3.51197815 C-1 1 -1 1 0 0 Z " fill="#000000" transform="translate(828,1162)"/>
  <path d="M0 0 C14.52 0 29.04 0 44 0 C44 7.87209609 44 7.87209609 40.84375 12.30859375 C40.15796875 13.29206787 39.4721875 14.27554199 38.765625 15.28881836 C37.64414062 16.84741577 37.64414062 16.84741577 36.5 18.4375 C35.73251848 19.52937775 34.966919 20.62258059 34.203125 21.71704102 C33.01718654 23.41566623 31.829997 25.11326802 30.63671875 26.80674744 C26.31344988 32.94374098 22.15275891 39.18409598 18 45.4375 C17.31228516 46.46738037 16.62457031 47.49726074 15.91601562 48.55834961 C12.75905351 53.16164549 12.75905351 53.16164549 10 58 C21.22 58 32.44 58 44 58 C44 59.98 44 61.96 44 64 C29.48 64 14.96 64 0 64 C0 57.25020893 0 57.25020893 2.58276367 53.49853516 C3.14722702 52.66391754 3.71169037 51.82929993 4.29325867 50.96939087 C4.91191299 50.08488251 5.53056732 49.20037415 6.16796875 48.2890625 C6.79979568 47.36209564 7.43162262 46.43512878 8.08259583 45.48007202 C10.10464061 42.51928022 12.14543156 39.57200769 14.1875 36.625 C16.20738525 33.682338 18.22339509 30.73705176 20.23884583 27.79135132 C21.49305869 25.96132572 22.75060172 24.13357647 24.01200867 22.3085022 C24.59223282 21.46758026 25.17245697 20.62665833 25.77026367 19.76025391 C26.2743425 19.03222565 26.77842133 18.30419739 27.29777527 17.55410767 C29.60897954 14.08625501 31.79125416 10.53399335 34 7 C22.78 7 11.56 7 0 7 C0 4.69 0 2.38 0 0 Z " fill="#000000" transform="translate(902,1162)"/>
  <path d="M0 0 C7 0 7 0 9.265625 2.0625 C9.92046875 3.031875 10.5753125 4.00125 11.25 5 C11.81050049 5.80751709 11.81050049 5.80751709 12.38232422 6.63134766 C13.19000945 7.80088119 13.98703679 8.97783186 14.77441406 10.16113281 C15.99086905 11.98629994 17.23601357 13.78792284 18.4921875 15.5859375 C20.80228313 18.90255312 23.08253152 22.2385582 25.35498047 25.58105469 C27.87798643 29.29104921 30.40850311 32.99591474 32.93774414 36.70166016 C35.96040127 41.13314121 38.97987681 45.56679164 42 50 C42.33 33.5 42.66 17 43 0 C45.31 0 47.62 0 50 0 C51 1 51 1 51.12025452 3.51197815 C51.11803391 4.62894577 51.11581329 5.74591339 51.11352539 6.89672852 C51.11344986 8.15796036 51.11337433 9.4191922 51.11329651 10.71864319 C51.1081891 12.10539794 51.10297309 13.49215229 51.09765625 14.87890625 C51.09579201 16.28995209 51.09436814 17.70099857 51.09336853 19.11204529 C51.08954379 22.83240535 51.0797139 26.5527266 51.06866455 30.27307129 C51.05844948 34.06680781 51.05387071 37.86055058 51.04882812 41.65429688 C51.03809158 49.10288231 51.0210157 56.55143572 51 64 C42.81108069 64.62569082 42.81108069 64.62569082 39.85522461 62.34545898 C39.37577393 61.57016846 38.89632324 60.79487793 38.40234375 59.99609375 C37.83604248 59.12057861 37.26974121 58.24506348 36.6862793 57.34301758 C36.10918213 56.38419678 35.53208496 55.42537598 34.9375 54.4375 C33.6530031 52.42843211 32.36647285 50.42066308 31.078125 48.4140625 C30.41748047 47.36508789 29.75683594 46.31611328 29.07617188 45.23535156 C25.60129907 39.82036868 21.88817653 34.57453716 18.1875 29.3125 C16.84675758 27.39255434 15.50684569 25.47202828 14.16796875 23.55078125 C13.32141724 22.33902222 13.32141724 22.33902222 12.45776367 21.1027832 C11.28715221 19.41420901 10.13971845 17.70957768 9 16 C8.67 31.84 8.34 47.68 8 64 C5.36 64 2.72 64 0 64 C0 42.88 0 21.76 0 0 Z " fill="#000000" transform="translate(979,1162)"/>
  <path d="M0 0 C2.31 0 4.62 0 7 0 C7 10.56 7 21.12 7 32 C8.65 30.35 10.3 28.7 12 27 C12.72960938 26.28199219 13.45921875 25.56398438 14.2109375 24.82421875 C17.75194596 21.32795227 21.23196189 17.81694378 24.5 14.0625 C25.05945312 13.42441406 25.61890625 12.78632812 26.1953125 12.12890625 C27.53998197 10.54266196 28.84066302 8.91892597 30.1171875 7.27734375 C35.79177269 0.29701491 35.79177269 0.29701491 39.57421875 -0.6328125 C42.0625 -0.625 42.0625 -0.625 46 0 C44.39688442 3.82766361 41.94515468 6.42524783 39.125 9.4375 C38.64828857 9.94958008 38.17157715 10.46166016 37.68041992 10.98925781 C36.66055077 12.08475251 35.63892776 13.17861656 34.61572266 14.27099609 C31.83233262 17.24953466 29.07472712 20.25185165 26.3125 23.25 C24.54224013 25.16719737 22.77112389 27.08360068 21 29 C24.79407388 35.02588204 28.99664623 40.5359947 33.54296875 46.01171875 C36.26675687 49.32443404 38.92988357 52.6771698 41.5625 56.0625 C42.00432617 56.62291992 42.44615234 57.18333984 42.90136719 57.76074219 C46 61.76653242 46 61.76653242 46 64 C42.85986876 64.53807875 40.12941824 64.66230414 37 64 C34.0119241 61.65190416 32.02038461 58.7373703 29.875 55.625 C29.27606934 54.80531738 28.67713867 53.98563477 28.06005859 53.14111328 C26.34417591 50.77996532 24.66829218 48.39490755 23 46 C22.18403113 44.85813 21.3665853 43.71731214 20.546875 42.578125 C19.00087742 40.40367312 17.48241115 38.21804374 16 36 C15.05125 36.763125 14.1025 37.52625 13.125 38.3125 C12.59132813 38.74175781 12.05765625 39.17101563 11.5078125 39.61328125 C9.37700162 41.57296483 8.10465819 43.28558366 7.68115234 46.17651367 C7.634021 47.40978394 7.634021 47.40978394 7.5859375 48.66796875 C7.54726562 49.56064453 7.50859375 50.45332031 7.46875 51.37304688 C7.4378125 52.30181641 7.406875 53.23058594 7.375 54.1875 C7.31699219 55.59805664 7.31699219 55.59805664 7.2578125 57.03710938 C7.16356813 59.3578771 7.07795975 61.67863748 7 64 C4.69 64 2.38 64 0 64 C0 42.88 0 21.76 0 0 Z " fill="#000000" transform="translate(1065,1162)"/>
  <path d="M0 0 C2.31 0 4.62 0 7 0 C7.33 18.81 7.66 37.62 8 57 C17.57 57.33 27.14 57.66 37 58 C37 59.98 37 61.96 37 64 C24.79 64 12.58 64 0 64 C0 42.88 0 21.76 0 0 Z " fill="#000000" transform="translate(1142,1162)"/>
</svg>