<?xml version="1.0" encoding="UTF-8" standalone="yes"?>
<svg width="2000" height="2000" version="1.2" baseProfile="tiny-ps" xmlns="http://www.w3.org/2000/svg">
  <title>bimi-svg-tiny-12-ps</title>
  <path fill="#E5D5C9" d="M0 0h2000v2000H0z"/>
  <path fill="#010101" d="m324 769 10 4v175c9.192-.062 9.192-.062 12.629-2.934l1.933-2.504 2.223-2.746L353 937a428 428 0 0 1 4.5-5l2.25-2.5L384.5 902l2.23-2.48q2.344-2.602 4.696-5.196l2.387-2.636 2.144-2.364c2.095-2.383 4.08-4.832 6.043-7.324-8.63-2.205-17.233-4.398-26-6a351 351 0 0 1-.125-4.812l-.07-2.708C376 866 376 866 378 863c3.012-.36 3.012-.36 6.928-.34l2.159-.002c2.36.002 4.718.026 7.077.049q2.451.009 4.902.013c4.304.011 8.607.04 12.911.074 4.39.03 8.781.044 13.171.06q12.927.05 25.852.146.039 2.969.063 5.938l.035 3.34C451 875 451 875 450 876c-1.62.302-3.246.566-4.875.813-15.593 2.77-25.232 10.163-35.367 21.91-3.672 4.212-7.476 8.285-11.32 12.34q-2.103 2.223-4.204 4.449l-2.127 2.251c-3.91 4.15-7.794 8.326-11.678 12.503l-3.057 3.286A199 199 0 0 1 373 938c1.251 3.414 2.66 6.174 4.836 9.082l1.707 2.299 1.832 2.432 1.902 2.552q2.855 3.823 5.723 7.635l3.102 4.137a4872 4872 0 0 0 4.356 5.802c4.486 5.967 8.91 11.98 13.331 17.995a1469 1469 0 0 0 12.663 16.981 388 388 0 0 1 8.126 11.163l1.852 2.606a354 354 0 0 1 3.5 5.023c5.215 7.304 10.65 10.168 19.412 11.662l2.096.319c7.46 1.21 7.46 1.21 8.562 2.312.358 7.284.358 7.284-2 12h-79c0-11 0-11 1-13h18a3079 3079 0 0 0-25.225-36.47q-3.57-5.09-7.128-10.19a696 696 0 0 0-3.544-5.009c-2.864-4.026-5.572-8.056-8.052-12.331l-1.467-2.394a75 75 0 0 1-2.536-4.491c-1.385-2.445-1.385-2.445-5.048-5.115l-17-1 1 70 24 7c0 10 0 10-1 13h-88v-12c5.61-2.266 11.18-3.871 17.07-5.254 3.018-.768 5.976-1.761 8.93-2.746l1-237-18-1c-4.336-.32-8.668-.64-13-1q-.079-2.655-.125-5.312l-.07-2.989C266 782 266 782 268 779c1.742-.628 1.742-.628 3.875-.992l2.45-.44 2.675-.443 5.676-1.012 3.073-.536c5.823-1.033 11.63-2.151 17.438-3.264 1.14-.215 2.28-.43 3.456-.65l3.212-.612 2.864-.542c7.933-1.77 7.933-1.77 11.281-1.509M1199 769l10 4v175c9.586.083 9.586.083 13.438-4.312l1.652-2.176c2.29-3.012 4.831-5.75 7.41-8.512 3.041-3.298 6.062-6.61 9-10 3.407-3.93 6.93-7.752 10.453-11.578a463 463 0 0 0 9.16-10.285c2.94-3.329 5.958-6.585 8.98-9.838A146 146 0 0 0 1277 882c-8.63-2.205-17.233-4.398-26-6a701 701 0 0 1-.062-4.812l-.036-2.708C1251 866 1251 866 1252 863h74v12c-1.897 1.897-5.272 1.763-7.812 2.188-15.504 2.951-24.439 11.046-34.54 22.66-3.635 4.17-7.404 8.2-11.21 12.215l-4.2 4.445-2.126 2.25c-3.94 4.183-7.856 8.39-11.77 12.596-2.09 2.242-4.175 4.479-6.342 6.646.33 3.546 2.098 5.743 4.246 8.492l2.022 2.613 2.17 2.77q2.219 2.87 4.433 5.742l2.171 2.816c2.793 3.662 5.443 7.409 8.089 11.178 3.82 5.4 7.845 10.64 11.869 15.889 4.425 5.772 8.817 11.55 13 17.5 4.338 6.106 8.727 12.17 13.188 18.188l2.017 2.794c6.081 8.127 11.354 10.052 21.17 11.643 7.508 1.258 7.508 1.258 8.625 2.375.358 7.284.358 7.284-2 12h-79c0-11 0-11 1-13h18c-7.218-10.606-14.493-21.165-21.91-31.633a2108 2108 0 0 1-8.2-11.663 716 716 0 0 0-3.545-5.01c-3.102-4.366-6.02-8.762-8.747-13.374l-1.733-2.793a110 110 0 0 1-3.105-5.345c-1.68-2.893-1.68-2.893-5.76-6.182l-17-1 1 70 24 7c0 9 0 9-2 13h-87v-12c5.61-2.266 11.18-3.871 17.07-5.254 3.018-.768 5.976-1.761 8.93-2.746l1-237-16-1a258 258 0 0 1-8.5-1.062l-3.781-.536L1141 792a444 444 0 0 1-.125-5.375l-.07-3.023C1141 781 1141 781 1143 779a170 170 0 0 1 9-1.812l5.676-1.04 3.073-.555c5.819-1.061 11.628-2.17 17.438-3.28 1.14-.215 2.28-.43 3.456-.65l3.212-.612 2.864-.542c7.933-1.77 7.933-1.77 11.281-1.509M1056.375 858.813l3.04-.038c13.477-.026 25.644 3.895 35.585 13.225 12.012 12.568 14.288 28.286 14.319 44.999l.03 3.788q.038 5.088.056 10.175c.015 3.558.042 7.116.068 10.674q.068 10.083.116 20.165c.039 7.66.088 15.318.138 22.978.103 15.74.191 31.48.273 47.221l25 7c0 10 0 10-1 13h-88c0-10 0-10 1-13 2.3-.809 2.3-.809 5.313-1.437 4.422-.94 8.641-2.18 12.922-3.622 1.08-.363 2.16-.725 3.272-1.1L1071 1032q.106-22.102.155-44.205c.016-6.844.037-13.687.071-20.53.034-6.614.05-13.227.059-19.84q.008-3.771.032-7.542c1.116-24.323 1.116-24.323-8.317-45.883-6.212-6.212-12.843-8.352-21.409-8.468l-2.653.03-2.787.023c-17.876.427-32.092 7.368-45.151 19.415-1.251 2.503-1.123 4.185-1.12 6.986l-.004 3.196.01 3.52v3.695q.001 5.024.013 10.047c.006 3.498.006 6.996.008 10.494q.005 9.94.021 19.879.015 11.315.022 22.628.016 23.278.05 46.555l10.342 3.047q6.82 2.008 13.658 3.953.039 2.406.063 4.813l.035 2.707C1014 1049 1014 1049 1013 1052h-88v-12a205 205 0 0 1 16.875-5.687l2.297-.682C949.744 1032 949.744 1032 952 1032V887l-31-3c0-10 0-10 2-14 2.033-.742 2.033-.742 4.566-1.09l2.875-.43 3.121-.418q3.27-.484 6.536-.98l3.43-.517c6.743-1.097 13.42-2.547 20.095-3.99 9.19-1.923 14.392-2.426 23.377 1.425l1 24 4.125-3.937c17.884-16.044 40.182-25.235 64.25-25.25"/>
  <path fill="#020202" d="M592.621 869.04c16.98 14.683 24.757 34.889 26.379 56.96.21 3.626.318 7.243.375 10.875l.113 2.797.035 2.695.06 2.41c-.9 3.432-2.613 4.351-5.583 6.223a59 59 0 0 1-8.572.47l-2.585.007c-2.822.002-5.642-.024-8.464-.051q-2.97-.007-5.941-.01a2232 2232 0 0 1-12.486-.06c-5.27-.038-10.54-.057-15.81-.067-5.087-.01-10.175-.03-15.263-.05l-2.853-.011c-13.697-.06-27.348-.508-41.026-1.228q.362 5.866.745 11.731.19 2.952.368 5.906c.71 10.754 1.618 21.321 5.575 31.426l.791 2.047c5.97 14.856 15.048 24.764 29.384 31.577 7.026 2.94 13.785 2.497 21.324 2.5l3.909.038c15.89.024 27.798-4.418 41.31-12.772 2.274-1.274 4.05-1.997 6.594-2.453 4.98 5.345 4.98 5.345 5.063 8.063-8.382 15.284-27.288 22.75-43.111 27.406-12.838 3.495-28.097 2.226-40.952-.469l-2.895-.52c-20.209-4.193-39.239-17.686-50.842-34.605-12.06-18.554-16.45-38.182-16.448-60.03-.002-2.011-.02-4.023-.04-6.034-.017-11.895.921-23.518 4.85-34.811l.788-2.29c8.69-24.163 26.436-40.99 49.243-51.991 22.784-9.765 55.552-11.56 75.965 4.32"/>
  <path fill="#020101" d="M1545.07 857.926c10.045-.338 19.332-.293 28.93 3.074l3.043 1.031c14.459 5.425 24.24 15.832 30.87 29.651 1.519 3.386 2.843 6.824 4.087 10.318l.685 1.906c3.383 9.979 3.713 19.992 3.815 30.469l.056 3.913-.025 3.673-.013 3.306C1616 948 1616 948 1614.273 949.65c-2.644 1.572-4.107 1.72-7.163 1.707l-2.976.01-3.243-.038-3.428-.004c-3.738-.01-7.475-.042-11.213-.074q-3.881-.018-7.763-.033c-26.832-.134-53.662-.63-80.487-1.217q.206 4.697.426 9.395l.114 2.644c1.084 22.873 6.005 46.74 23.46 62.961 11.178 8.516 20.549 10.49 34.438 10.313l3.814.01c16.463-.095 29.975-4.309 43.346-14.198 2.402-1.125 2.402-1.125 5.086-.5C1611 1022 1611 1022 1613 1025c.391 2.96.39 4.422-1.293 6.922-9.031 8.715-19.029 15.44-30.707 20.078l-2.145.895c-20.377 8.159-44 5.186-64.18-2.094-2.653-1.14-5.148-2.405-7.675-3.801l-2.898-1.484c-19.344-10.443-33.263-28.496-39.915-49.328A186 186 0 0 1 1462 988l-.496-1.991c-6.558-27.763-4.258-60.066 10.61-84.867 8.73-13.783 19.842-24 33.886-32.142l2.516-1.492c11.111-6.085 23.988-9.134 36.554-9.582"/>
  <path fill="#030303" d="M754 864h140c5.407 10.814 5.407 10.814 4 16-2.083 3.934-4.658 7.434-7.312 11q-2.22 3.08-4.438 6.16l-2.207 3.024c-2.688 3.705-5.28 7.47-7.856 11.254l-2.632 3.835L871 919c-6.99 10.2-14.03 20.364-21.096 30.51q-6.376 9.157-12.686 18.36c-4.687 6.83-9.43 13.621-14.166 20.418a2045 2045 0 0 0-14.188 20.631c-5.516 8.105-11.207 16.067-16.864 24.081l79 1 1-8c.279-1.381.584-2.758.94-4.121l.545-2.122.581-2.194.601-2.32q.942-3.624 1.895-7.243l1.288-4.95q1.567-6.026 3.15-12.05c5.611-1.541 11.206-1.058 17-1 3 17 3 17 3 61H753c-3.665-9.774-3.665-9.774-3-14a70 70 0 0 1 4.438-7.25l3.042-4.54 1.701-2.508c3.414-5.071 6.732-10.205 10.069-15.327q2.21-3.38 4.422-6.758 5.922-9.053 11.828-18.117c8.874-13.613 17.77-27.212 26.666-40.812 7.616-11.643 15.23-23.287 22.834-34.938l1.74-2.665c4.79-7.34 9.52-14.713 14.26-22.085l-68-1-2 16a709 709 0 0 1-2.125 12.5l-.55 3.105q-.658 3.698-1.325 7.395c-4.125 1.555-7.472 2.232-11.875 2.125l-2.93-.055L760 922c-3.597-11.796-4.16-24.198-5.125-36.437l-.266-3.338-.242-3.221-.215-2.85c-.195-4.047-.152-8.102-.152-12.154"/>
  <path fill="#040403" d="m1399.438 769.188 2.058.23c3.603.838 7.04 2.283 10.504 3.582v259l16 4 12 3q.039 2.406.063 4.813l.035 2.707C1440 1049 1440 1049 1439 1052l-2.822-.007q-13.26-.03-26.52-.045-6.813-.007-13.628-.023-6.595-.016-13.189-.02-2.497-.003-4.995-.01c-10.331-.033-20.546.264-30.846 1.105-.125-10.625-.125-10.625 1-14a97 97 0 0 1 8.625-2q2.396-.459 4.79-.937l2.154-.403c3.254-.884 6.331-2.332 9.431-3.66l1-237-26-2-5-1a268 268 0 0 1-.125-4.25l-.07-2.39c.221-2.675.743-4.11 2.195-6.36 1.826-.771 1.826-.771 4.063-1.157l2.54-.465 2.752-.448 2.834-.507a1069 1069 0 0 1 8.998-1.548 3400 3400 0 0 0 8.946-1.57 899 899 0 0 1 5.57-.961c18.499-3.187 18.499-3.187 18.735-3.157"/>
  <path d="m708 865 1 167 24 7c0 9 0 9-2 13h-87v-12c5.61-2.266 11.18-3.871 17.07-5.254 3.018-.768 5.976-1.761 8.93-2.746l1-145-12-1c-3.418-.343-6.834-.694-10.25-1.062l-2.582-.276q-3.084-.33-6.168-.662-.079-2.655-.125-5.312l-.07-2.989C640 873 640 873 642 870a73 73 0 0 1 7.648-1.5l2.327-.37a950 950 0 0 1 7.4-1.13q4.825-.74 9.648-1.5l2.36-.37a150 150 0 0 0 16.189-3.536c8.103-1.981 12.484-.125 20.428 3.406"/>
  <path fill="#010101" d="m1705 864 1 168 22 6 3 2c.463 4.905-.125 7.314-2 12h-88c0-11 0-11 1-13 2.193-.762 2.193-.762 5.059-1.473l3.107-.787 3.272-.803q3.186-.796 6.37-1.597l2.87-.707c2.323-.552 2.323-.552 4.322-1.633l1-145-31-3c0-9.333 0-9.333 2-13 3.077-1.538 6.437-1.704 9.813-2.187 10.165-1.511 20.186-3.628 30.221-5.831l3.607-.775 3.204-.704c7.666-1.222 11.365-.1 19.155 2.497"/>
  <path fill="#E3D3C7" d="M1569.313 879.063c10.335 11.296 11.895 28.187 11.75 42.875l-.014 2.65q-.02 3.206-.049 6.412l-2.933.152-13.88.723-2.563.134c-9.554.499-19.108 1.011-28.66 1.57-.793.045-1.586.092-2.403.14q-5.67.33-11.338.671c-6.414.38-12.795.726-19.223.61.63-19.524 10.014-37.254 23.953-50.582 13.274-10.534 30.247-14.765 45.36-5.356"/>
  <path fill="#E3D4C8" d="M570 878c8.944 7.538 11.866 18.717 13 30 .336 7.663.195 15.335 0 23l-2.841.152-15.963.857c-9.39.504-18.778 1.02-28.165 1.57-.792.045-1.584.092-2.4.14q-5.68.33-11.357.671c-6.431.38-12.83.727-19.274.61.688-19.396 9.208-36.94 23.313-50.25 4.505-3.86 9.25-6.43 14.687-8.75l2.875-1.312c9.01-1.983 18.015-1.248 26.125 3.312"/>
  <path fill="#020202" d="M1693.414 781.027c6.519 4.543 10.991 11.543 13.586 18.973.625 6.357-.285 10.749-4 16-5.946 6.87-13.993 10.8-23.062 11.625-6.446-1.023-11.578-3.857-15.836-8.852-4.72-6.883-7.536-13.327-6.102-21.773 3.336-7.078 10.458-12.78 17.383-16.164 5.7-1.82 12.462-2.179 18.031.191"/>
  <path fill="#020101" d="M692 780c8.466 2.925 13.152 10.303 17 18 .493 5.397.759 10.324-1.5 15.313-6.876 7.391-14.076 13.546-24.625 14.187-7.775-1.003-12.524-4.376-17.398-10.441-4.698-6.55-5.717-13.177-4.477-21.059 5.107-12.248 18.917-16.871 31-16"/>
  <path fill="#0A0909" d="M1022 1162h8v65c-8 0-8 0-9.803-1.259l-1.146-1.792-1.36-2.028-1.379-2.234-1.516-2.3a461 461 0 0 1-3.171-4.876c-2.157-3.333-4.407-6.599-6.661-9.867q-2.343-3.4-4.663-6.816c-4.075-5.96-8.191-11.892-12.301-17.828l-1 48h-8v-63c8 0 8 0 9.788 1.243l1.126 1.773 1.345 2.013 1.366 2.221q1.542 2.343 3.086 4.684l1.612 2.503c2.86 4.372 5.906 8.613 8.927 12.876 5.04 7.152 9.894 14.403 14.75 21.687z"/>
  <path fill="#090908" d="M827 1162h8l1 31c4.557-4.557 8.841-8.873 13-13.715 3.02-3.45 6.143-6.806 9.269-10.161 2.127-2.3 3.989-4.51 5.731-7.124 2.383-.293 2.383-.293 5.125-.187l2.758.082L874 1162c-1.484 3.487-3.462 5.642-6.187 8.25-3.56 3.473-6.871 7.048-10.106 10.82-2.76 3.12-5.723 6.028-8.707 8.93 1.253 3.453 2.656 6.133 4.941 9.004l1.758 2.229 1.864 2.33q1.898 2.405 3.792 4.812l1.877 2.375a546 546 0 0 1 7.143 9.313l2.148 2.847C874 1225 874 1225 874 1226c-3.48.57-6.534.722-10 0-3.12-2.525-5.1-5.64-7.25-9l-3.453-5.062-1.65-2.504c-2.064-3.05-4.293-5.95-6.572-8.84C844 1199 844 1199 844 1197l-2.312 2.313C839 1202 839 1202 837.364 1203.349c-1.872 2.266-1.792 3.843-1.876 6.756l-.107 2.979-.068 3.103-.104 3.14A780 780 0 0 0 835 1227h-8z"/>
  <path fill="#050404" d="m1110.129 1161.648 1.871.352q-2.994 3.505-6 7l-1.5 1.754c-5.978 6.92-12.26 13.564-18.5 20.246l1.064 1.412q4.239 5.63 8.409 11.315l1.787 2.437a4287 4287 0 0 1 3.617 4.945c2.597 3.539 5.191 7.026 8.057 10.352C1111 1224 1111 1224 1111 1226c-3.14.538-5.87.662-9 0-2.988-2.348-4.98-5.263-7.125-8.375l-1.815-2.484A438 438 0 0 1 1088 1208q-1.224-1.713-2.453-3.422A277 277 0 0 1 1081 1198l-3.437 2.938-1.934 1.652c-2.276 1.767-2.276 1.767-2.834 4.451l-.111 2.65-.127 2.862-.12 3.01-.13 3.021q-.16 3.708-.307 7.416h-7v-63h7v31l5-5c.73-.718 1.46-1.436 2.21-2.176 3.542-3.496 7.022-7.007 10.29-10.762l1.7-1.933a126 126 0 0 0 3.882-4.852c4.684-5.832 7.37-8.446 15.047-7.629"/>
  <path fill="#080707" d="M902 1162h44c0 7.872 0 7.872-3.156 12.309l-2.078 2.98-2.266 3.149q-1.15 1.637-2.297 3.279a1436 1436 0 0 1-3.566 5.09c-4.324 6.137-8.484 12.377-12.637 18.63l-2.084 3.121c-3.157 4.604-3.157 4.604-5.916 9.442h34v6h-44c0-6.75 0-6.75 2.583-10.501l1.71-2.53 1.875-2.68 1.915-2.809a1586 1586 0 0 1 6.105-8.855q3.029-4.415 6.05-8.834 1.882-2.745 3.774-5.482l1.758-2.549 1.528-2.206c2.311-3.468 4.493-7.02 6.702-10.554h-34z"/>
  <path d="M1142 1163h7v57h30v6h-37z"/>
</svg>